<?xml version="1.0" standalone="no"?><!DOCTYPE svg PUBLIC "-//W3C//DTD SVG 1.1//EN" "http://www.w3.org/Graphics/SVG/1.1/DTD/svg11.dtd"><svg class="icon" width="200px" height="200.00px" viewBox="0 0 1024 1024" version="1.1" xmlns="http://www.w3.org/2000/svg"><path d="M115.4 91.5c19.5-15.1 43.9-23.7 68.6-24h656.2c32.4 0.4 64.3 15.4 85.4 40 17.4 19.8 27.5 45.8 28.5 72.1v380.7c-1.1 28.2-12.5 55.9-32.2 76.2-21 22.3-51.2 35.6-81.8 36-27.6 0.1-55.1 0.1-82.7 0-0.3 22.9-0.1 45.7-0.1 68.6 16.4 0.2 32.8 0 49.2 0.1 9.5 0.1 19-0.3 28.5 0.7 17.6 1.8 34.7 8.2 49.3 18.3 22.4 15.4 38.7 39.5 44.3 66.1 6.4 29.3-0.2 61.2-17.9 85.5-16.5 23.1-42.4 39.1-70.5 43.4-10 1.7-20.1 1.1-30.2 1.2H217.7c-12.9-0.1-25.9 0.7-38.5-2.1-17.3-3.6-33.8-11.4-47.3-22.8-21-17.3-34.8-42.9-37.9-70-3.7-29.6 5.8-60.6 25.5-83.1 19.4-22.6 48.6-36.5 78.4-37.1 22.9-0.3 45.9 0.1 68.9-0.2v-68.3c-5.7-0.5-11.4-0.2-17-0.2-21.6 0-43.1 0.1-64.6 0-20-0.3-40-5.7-57.3-15.8-23.3-13.5-41.5-35.3-50.7-60.6-5.1-13.8-7.2-28.5-7.1-43.2V187.8c0-10.8 0.8-21.7 3.6-32.1 5.9-25.4 21-48.4 41.7-64.2m207.1 160.6c-15.8 1.3-31.3 5.9-45.2 13.5-22.1 11.9-40.1 31.1-50.5 53.9-10.2 22.1-13.1 47.5-8.4 71.4 4.5 22.8 16.1 44.2 32.8 60.4 13.4 13.3 30.2 23.1 48.3 28.4 22.1 6.5 46.1 6.3 68.1-0.5 28.5-8.9 53.1-29.1 67.3-55.4 17.5-31.7 18.8-71.7 3.5-104.5-9.7-21.2-26.1-39.4-46.2-51.3-20.8-12.4-45.6-18-69.7-15.9m361.7 0.7c-20.2 1.2-40.1 7.8-56.9 19-25 16.4-43.2 42.8-49.5 72.1-7.5 33.3 0.6 69.7 21.8 96.5 19.5 25.3 49.9 41.9 81.8 44.5 31.8 3 64.5-8 88.1-29.5 24.2-21.7 38.7-53.9 38.4-86.4 0.3-32.6-14.1-64.8-38.3-86.5-22.9-20.8-54.5-31.8-85.4-29.7M503.8 746.1c-8.7 1.2-16.4 7.8-18.8 16.2-1.5 4.6-0.9 9.6-1 14.4 0 19.3-0.1 38.6 0.1 57.8 0.5 11.7 11.1 21.8 22.8 21.6 11.9 0.5 22.9-9.7 23.3-21.5v-67.5c-0.5-13-13.7-23.3-26.4-21m108.8-0.1c-8.6 1.1-16.2 7.4-18.8 15.7-1.2 3.4-1.2 7-1.2 10.6v61.3c0 11.5 9.8 21.9 21.3 22.4 10.2 1 20.3-5.6 23.6-15.2 1.7-4.2 1.2-8.8 1.3-13.2v-60.4c-0.5-12.9-13.5-23.3-26.2-21.2m-217.6 0.8c-9.5 2.7-16.6 12.1-16.5 22v64.7c0.1 11.5 9.8 21.8 21.3 22.5 9.3 0.9 18.7-4.5 22.7-12.9 2.5-4.8 2.5-10.3 2.4-15.6v-57.9c0.1-7.8-3.7-15.6-10.3-19.9-5.6-3.9-13.1-4.7-19.6-2.9zM326.8 298.6c16.5-1.4 33.4 3.3 46.7 13.1 12.2 8.9 21.5 21.8 25.9 36.3 4.3 14.2 3.9 29.8-1.1 43.8-5.2 14.3-15.1 26.8-27.9 35-13.6 8.9-30.4 12.6-46.5 10.6-15-1.8-29.3-8.8-40-19.5-11.6-11.2-19-26.5-20.6-42.5-1.7-15.4 2.1-31.3 10.4-44.4 11.4-18.3 31.6-30.8 53.1-32.4zM686 299.5c15.2-1.3 30.8 2.7 43.6 11.1 11.4 7.4 20.6 18.3 26 30.8 6.9 15.8 7.5 34.1 1.9 50.3-8.5 25.5-32.9 44.7-59.8 46.7-16.7 1.6-33.9-3.3-47.4-13.3-13.4-9.8-23.1-24.4-26.7-40.6-3.4-14.9-1.8-30.9 4.6-44.7 10.1-22.5 33-38.6 57.8-40.3z" /></svg>